<svg xmlns="http://www.w3.org/2000/svg" width="125" height="41" viewBox="0 0 125 41">
    <g fill="none" fill-rule="evenodd">
        <path fill="#1C1C1C" d="M124.93 35.343c0 3.05-2.472 5.523-5.521 5.523H5.523C2.473 40.866 0 38.392 0 35.343V5.523C0 2.472 2.473 0 5.523 0h113.886c3.05 0 5.521 2.473 5.521 5.522v29.82"/>
        <path fill="#FFFFFE" d="M32.578 27.012c-.661 1.466-.978 2.12-1.829 3.416-1.188 1.81-2.863 4.061-4.937 4.08-1.845.017-2.318-1.2-4.82-1.186-2.502.014-3.025 1.208-4.87 1.191-2.074-.02-3.66-2.053-4.849-3.862-3.323-5.058-3.67-10.993-1.62-14.149 1.456-2.242 3.752-3.555 5.913-3.555 2.199 0 3.581 1.206 5.4 1.206 1.763 0 2.839-1.208 5.381-1.208 1.922 0 3.958 1.046 5.41 2.856-4.755 2.606-3.983 9.396.821 11.211m23.431-6.955c1.22 0 2.326.51 3.115 1.436.806.946 1.232 2.234 1.232 3.723 0 1.685-.49 3.096-1.419 4.077-.831.88-1.972 1.365-3.211 1.365-1.19 0-2.24-.458-2.898-1.245v5.04h-2.12V23.654c0-1.372-.023-2.327-.08-3.195l-.012-.178h1.939l.084 1.393c.77-1.06 1.926-1.617 3.37-1.617zm10.915 0c1.22 0 2.326.51 3.115 1.436.806.946 1.232 2.234 1.232 3.723 0 1.685-.49 3.096-1.418 4.077-.833.88-1.974 1.365-3.213 1.365-1.19 0-2.239-.458-2.896-1.245v5.04h-2.12V23.654c0-1.372-.024-2.326-.082-3.195l-.01-.178h1.937l.085 1.393c.77-1.06 1.927-1.617 3.37-1.617zm21.065-2.19v2.414h2.557v1.694h-2.557v5.128c0 1.22.35 1.74 1.172 1.74.443 0 .718-.032.986-.115l.203-.062.102 1.697-.12.042c-.267.095-.836.253-1.638.253-.848 0-1.577-.286-2.05-.805-.494-.556-.734-1.435-.734-2.69v-5.188h-1.522V20.28h1.522V18.52l2.079-.653zm7.81 2.19c1.428 0 2.654.502 3.543 1.45.884.944 1.35 2.24 1.35 3.75 0 3.71-2.61 5.401-5.036 5.401h-.02c-2.87 0-4.874-2.146-4.874-5.22 0-3.167 2.07-5.38 5.036-5.38zm-15.343-3.854c1.72 0 2.732.484 3.087.692l.118.07-.598 1.768-.18-.11c-.236-.148-1.115-.625-2.488-.625-1.664 0-2.41.945-2.41 1.882 0 1.114.635 1.716 2.613 2.482 2.54 1.002 3.575 2.212 3.575 4.173 0 1.902-1.292 4.123-4.934 4.123-1.276 0-2.782-.386-3.583-.92l-.104-.07.569-1.81.184.118c.859.551 1.973.866 3.055.866 1.66 0 2.694-.829 2.694-2.165 0-1.181-.67-1.87-2.469-2.542-2.538-.923-3.72-2.21-3.72-4.052 0-2.284 1.888-3.88 4.591-3.88zm31.494 3.834c3.104 0 4.205 2.583 4.205 4.794 0 .379-.02.67-.064.885l-.028.135-6.841-.02c.13 2.769 2.254 3.073 3.175 3.073 1.31 0 2.078-.24 2.655-.475l.177-.071.407 1.579-.127.057c-.65.294-1.76.644-3.356.644-3.035 0-4.995-2.01-4.995-5.118 0-3.228 1.97-5.483 4.792-5.483zm-66.88-3.611l4.78 14.01h-2.24l-1.46-4.302H41.54l-1.42 4.301h-2.18l4.76-14.01h2.37zm61.46 3.631c.188 0 .34.02.527.067l.128.032v1.979l-.227-.024c-.181-.018-.352-.035-.569-.035-1.115 0-1.991.838-2.23 2.136-.038.25-.058.527-.058.822v5.401h-2.12l.02-6.924c0-1.271-.024-2.213-.08-3.052l-.012-.178h1.902l.062 1.483c.553-1.054 1.548-1.707 2.657-1.707zm-10.793 1.674c-1.958 0-2.835 1.832-2.835 3.648 0 2.09 1.167 3.606 2.774 3.606h.02c1.631 0 2.816-1.542 2.816-3.667 0-1.728-.868-3.587-2.775-3.587zm-29.34.081c-1.19 0-2.24.847-2.555 2.06l-.03.17c-.034.181-.068.37-.068.525v1.704c0 .269.025.507.074.686.286 1.16 1.312 1.967 2.497 1.967 1.736 0 2.816-1.39 2.816-3.627 0-1.734-.846-3.485-2.735-3.485zm-10.916 0c-1.19 0-2.239.847-2.555 2.06-.008.055-.02.113-.03.171-.033.182-.068.37-.068.524v1.704c0 .269.026.507.075.686.286 1.16 1.312 1.967 2.498 1.967 1.736 0 2.815-1.39 2.815-3.627 0-1.734-.845-3.485-2.735-3.485zM43.83 18.73c-.171.691-.354 1.346-.547 1.953L42.02 24.42h3.65l-1.283-3.714c-.222-.702-.396-1.351-.556-1.977zm67.979 2.921c-1.586 0-2.351 1.343-2.548 2.567h4.834c-.014-.439-.12-1.353-.73-1.973-.387-.394-.91-.594-1.556-.594zM47.504 8.528c1.52 0 2.547.994 2.547 2.44 0 1.77-1.366 2.538-2.623 2.538h-.011c-1.421 0-2.536-.944-2.536-2.45 0-1.593 1.17-2.528 2.623-2.528zm22.598 0c1.519 0 2.546.994 2.546 2.44 0 1.77-1.366 2.538-2.623 2.538h-.01c-1.421 0-2.536-.944-2.536-2.45 0-1.593 1.169-2.528 2.623-2.528zm33.057-1.033v1.141h1.377v.66h-1.377v2.567c0 .59.186.925.722.925.262 0 .415-.02.557-.06l.044.66c-.186.059-.481.118-.853.118-.448 0-.81-.138-1.039-.364-.262-.266-.37-.689-.37-1.25V9.295h-.82v-.659h.82v-.875l.939-.266zM89.855 8.528c1.52 0 2.547.994 2.547 2.44 0 1.77-1.367 2.538-2.623 2.538h-.012c-1.42 0-2.535-.944-2.535-2.45 0-1.593 1.17-2.528 2.623-2.528zm-14.287 0c1.629 0 2.022.994 2.022 1.948v1.78c0 .414.022.817.076 1.142h-.863l-.088-.6h-.032c-.284.374-.864.708-1.618.708-1.07 0-1.618-.679-1.618-1.368 0-1.15 1.137-1.78 3.18-1.77v-.099c0-.393-.119-1.111-1.201-1.101-.504 0-1.017.127-1.388.354l-.22-.58c.438-.246 1.083-.414 1.75-.414zM83.7 6.413v5.755c0 .423.012.905.044 1.23h-.863l-.044-.826h-.022c-.295.53-.929.934-1.792.934-1.28 0-2.274-.974-2.274-2.42-.011-1.594 1.093-2.558 2.372-2.558.82 0 1.367.345 1.596.718h.022V6.413h.961zm30.095 2.105c1.728 0 2.175 1.368 2.175 2.243 0 .177-.01.315-.032.414l-3.706-.01c.023 1.17.842 1.653 1.804 1.653.688 0 1.115-.109 1.465-.237l.175.61c-.34.138-.93.305-1.771.305-1.618 0-2.602-.974-2.602-2.4 0-1.446.952-2.578 2.492-2.578zm-73.821-1.8c1.367 0 2.34.276 2.984.817.667.54 1.05 1.318 1.05 2.39 0 1.082-.383 1.967-1.06 2.578-.7.62-1.837.954-3.269.954-.689 0-1.246-.02-1.738-.079V6.856c.59-.079 1.28-.138 2.033-.138zm11.599 1.918l.71 2.41c.142.532.285 1.034.383 1.526h.033c.12-.483.295-.994.47-1.515l.863-2.42h.81l.82 2.38c.196.56.349 1.072.47 1.555h.032c.087-.483.23-.984.404-1.545l.754-2.39h.952l-1.706 4.76h-.874l-.809-2.272c-.186-.54-.339-1.013-.47-1.574h-.022c-.131.57-.295 1.073-.481 1.584l-.852 2.263h-.875L50.59 8.636h.984zm10.297-.108c.733 0 1.87.394 1.87 2.027v2.843h-.962v-2.745c0-.767-.318-1.416-1.225-1.416-.622 0-1.115.403-1.29.885-.043.108-.065.265-.065.403v2.873h-.962V9.925c0-.502-.01-.895-.044-1.289h.853l.055.778h.022c.262-.443.874-.886 1.748-.886zm4.395-2.115v6.985h-.962V6.413h.962zM96.25 8.528c.733 0 1.87.394 1.87 2.027v2.843h-.962v-2.745c0-.767-.317-1.416-1.225-1.416-.622 0-1.115.403-1.29.885-.043.108-.065.265-.065.403v2.873h-.962V9.925c0-.502-.011-.895-.044-1.289h.853l.055.778h.021c.263-.443.875-.886 1.75-.886zm10.33-2.115v2.971h.023c.152-.246.393-.472.689-.61.284-.157.622-.246.983-.246.71 0 1.847.394 1.847 2.037v2.833h-.961v-2.735c0-.777-.317-1.417-1.225-1.417-.623 0-1.104.394-1.29.866-.055.118-.066.246-.066.413v2.873h-.961V6.413h.961zm-80.791-.06c.255 1.711-.448 3.386-1.37 4.572-.99 1.27-2.695 2.254-4.342 2.203-.3-1.638.471-3.323 1.407-4.46 1.03-1.251 2.796-2.211 4.305-2.315zm48.62 5.687c0 .57.415.827.897.827.699 0 1.147-.394 1.3-.797.033-.089.044-.187.044-.276v-.826c-1.05-.02-2.24.148-2.24 1.072zM47.472 9.177c-1.126 0-1.618.945-1.618 1.85 0 1.043.656 1.83 1.585 1.83h.01c.919 0 1.608-.777 1.608-1.86 0-.806-.449-1.82-1.585-1.82zm22.597 0c-1.126 0-1.618.945-1.618 1.85 0 1.043.656 1.83 1.585 1.83h.01c.919 0 1.608-.777 1.608-1.86 0-.806-.448-1.82-1.585-1.82zm19.754 0c-1.127 0-1.618.945-1.618 1.85 0 1.043.656 1.83 1.584 1.83h.012c.918 0 1.606-.777 1.606-1.86 0-.806-.447-1.82-1.584-1.82zm-8.516.03c-.995 0-1.585.787-1.585 1.83 0 .974.536 1.77 1.563 1.77.645 0 1.235-.393 1.41-1.032.033-.118.044-.237.044-.374v-.827c0-.118-.011-.255-.044-.373-.142-.541-.667-.994-1.388-.994zm-41.289-1.81c-.492 0-.864.04-1.115.088v5.244c.24.04.59.04.962.04 2.033.009 3.137-1.024 3.137-2.814.01-1.584-.973-2.558-2.984-2.558zm73.7 1.741c-.983 0-1.399.807-1.475 1.407h2.8c.01-.541-.253-1.407-1.324-1.407z"/>
    </g>
</svg>
