<svg xmlns="http://www.w3.org/2000/svg" viewBox="0 0 240 28"><path d="M35 1v21h-3.6L28 28l-3.4-6H21v-7h7V8h-7V1h14zM14 1v7H7v7h7v7H0V1h14z" fill="#ff4669"/><path d="M73.1 6.2c4.6 0 7.6 3.6 7.6 8.4v.8H68.8c.3 2.3 2 4.3 4.9 4.3 1.5 0 3.3-.6 4.4-1.7l1.5 2.2c-1.5 1.5-3.8 2.2-6.3 2.2-4.6 0-8.1-3.2-8.1-8.1.1-4.5 3.3-8.1 7.9-8.1zm16.6 0c3.4 0 6.4 1.4 6.4 5.6V22h-3.4v-1.7c-1.2 1.3-2.9 2-5 2-2.5 0-5.4-1.7-5.4-5.1 0-3.6 2.8-5 5.4-5 2.1 0 3.9.7 5 2v-2.3c0-1.8-1.5-2.9-3.6-2.9-1.7 0-3.2.6-4.6 2l-1.4-2.3C85 7 87.2 6.2 89.7 6.2zm13.4.3v9.7c0 2.4 1.2 3.1 3.1 3.1 1.7 0 3.2-1 4-2V6.5h3.4V22h-3.4v-2c-1.1 1.2-3 2.4-5.5 2.4-3.3 0-5-1.7-5-4.9v-11h3.4zm18.2-4.2v4.2h3.1v2.9h-3.1v8.1c0 1.1.5 1.8 1.5 1.8.6 0 1.2-.3 1.5-.5l.8 2.5c-.6.6-1.6 1-3.2 1-2.6 0-4-1.4-4-4V9.5h-2.6v-3h2.6V2.3h3.4zm25 4.2v9.7c0 2.4 1.2 3.1 3.1 3.1 1.7 0 3.2-1 4-2V6.5h3.4V22h-3.4v-2c-1.1 1.2-3 2.4-5.5 2.4-3.3 0-5-1.7-5-4.9v-11h3.4zm86.5-.3c2.7 0 4.3 1.1 5.3 2.3l-.7.6c-.9-1.3-2.5-2.1-4.6-2.1-2.7 0-4.3 1.4-4.3 3.2 0 4.3 9.9 1.8 9.9 7.7 0 2.4-1.8 4.4-5.5 4.4-2.4 0-4.1-.7-5.7-2.5l.8-.7c1 1.3 2.6 2.3 4.9 2.3 2.8 0 4.6-1.5 4.6-3.6 0-4.7-9.9-2.3-9.9-7.7-.1-2.1 1.8-3.9 5.2-3.9zm-37.2 0c4.7 0 7.2 3.8 7.2 8.1v.3h-13.3c.1 3.8 2.6 6.9 6.5 6.9 2.2 0 3.9-.8 5.4-2.3l.6.6c-1.6 1.6-3.4 2.6-6 2.6-4.5 0-7.6-3.4-7.6-8.1-.1-4.5 3-8.1 7.2-8.1zM163.7.7V22h-3.4V.7h3.4zM56.8.7c3.9 0 6.1 2.4 6.1 5.4 0 2.7-1.7 4.5-3.7 4.9 2.3.4 4.1 2.6 4.1 5.2 0 3.3-2.2 5.8-6.2 5.8H46.3V.7h10.5zm73.3 5.8V22h-3.4V6.5h3.4zm9.3-6.2c1.4 0 2.8.4 3.7 1.3l-1.3 2.1c-.4-.4-1-.7-1.8-.7-1.3 0-2.1.9-2.1 2.6v.9h3.1v2.9h-3.1V22h-3.4V9.5H132v-3h2.6v-.8c0-3.4 1.9-5.4 4.8-5.4zm66.3 6.2l4.5 14 4.6-14h.8l4.6 14 4.5-14h1.1L220.7 22h-.8l-4.7-14-4.7 14h-.8l-5.1-15.5h1.1zM168.8.7l14.4 19.5V.7h1V22h-1L168.8 2.3V22h-1V.7h1zM89.1 14.5c-1.9 0-3.3 1.1-3.3 2.8 0 1.7 1.4 2.8 3.3 2.8 1.5 0 2.9-.5 3.7-1.6v-2.3c-.8-1.1-2.2-1.7-3.7-1.7zm-32.9-1.7H50v5.9h6.1c2 0 3.3-1.1 3.3-3 0-1.6-1.1-2.9-3.2-2.9zM195.5 7c-4 0-6 3.6-6.1 6.7h12.3c0-3-1.9-6.7-6.2-6.7zM73.1 8.9c-2.9 0-4.2 2.2-4.4 4.1h8.7c0-1.8-1.3-4.1-4.3-4.1zM56 4h-6v5.5h6c1.9 0 3-1.2 3-2.8S57.9 4 56 4zM128.4.5c1.2 0 2.1.9 2.1 2.1s-.9 2.1-2.1 2.1c-1.1 0-2.1-.9-2.1-2.1s1-2.1 2.1-2.1z" fill="#fff"/></svg>